<?xml version="1.0" encoding="UTF-8"?>
<svg xmlns="http://www.w3.org/2000/svg" width="1190px" height="108px"
     viewBox="0 0 1190 108" font-family="-apple-system,BlinkMacSystemFont,'SF Pro Text','Segoe UI',Roboto,'Helvetica Neue',Arial,sans-serif"
     role="img" aria-label="dock">
<title>dock</title>
<style><![CDATA[
  .lnk { cursor: pointer; }
  .dockicon { transition: transform .16s ease; transform-origin: center bottom; }
  .dockicon:hover { transform: translateY(-7px) scale(1.13); }
]]></style>
<rect x="418.0" y="8" width="354" height="82" rx="22" fill="#ffffff" fill-opacity="0.7"/><rect x="418.5" y="8.5" width="353" height="81" rx="22" fill="none" stroke="#ffffff" stroke-opacity=".14"/><g class="dockicon"><a class="lnk" href="https://ishraqkhan.com" target="_blank" rel="noopener noreferrer"><defs><linearGradient id="dock0" x1="0" y1="0" x2="0" y2="1"><stop offset="0%" stop-color="#4aa8ff"/><stop offset="100%" stop-color="#0a5fd0"/></linearGradient></defs><rect x="432.0" y="22" width="54" height="54" rx="12.42" fill="url(#dock0)"/><rect x="432.5" y="22.5" width="53" height="53" rx="12.42" fill="none" stroke="#ffffff" stroke-opacity=".18"/><g transform="translate(459.0,49.0)"><circle r="15" fill="none" stroke="#ffffff" stroke-width="2.2"/><ellipse rx="7" ry="15" fill="none" stroke="#ffffff" stroke-width="2.2"/><path d="M-15 0 H15 M-13 -7.5 H13 M-13 7.5 H13" stroke="#ffffff" stroke-width="2.2" fill="none"/></g></a></g><circle cx="459.0" cy="97" r="2.2" fill="#1d1d1f" fill-opacity=".55"/><g class="dockicon"><a class="lnk" href="https://kodezi.com" target="_blank" rel="noopener noreferrer"><defs><linearGradient id="dock1" x1="0" y1="0" x2="0" y2="1"><stop offset="0%" stop-color="#7b6cff"/><stop offset="100%" stop-color="#4b34d6"/></linearGradient></defs><rect x="500.0" y="22" width="54" height="54" rx="12.42" fill="url(#dock1)"/><rect x="500.5" y="22.5" width="53" height="53" rx="12.42" fill="none" stroke="#ffffff" stroke-opacity=".18"/><g transform="translate(527.0,49.0)"><text x="0" y="9" text-anchor="middle" font-size="28" fill="#ffffff" font-family="-apple-system,BlinkMacSystemFont,'SF Pro Text','Segoe UI',Roboto,'Helvetica Neue',Arial,sans-serif" font-weight="700">K</text></g></a></g><circle cx="527.0" cy="97" r="2.2" fill="#1d1d1f" fill-opacity=".55"/><g class="dockicon"><a class="lnk" href="mailto:ishraq@kodezi.com" target="_blank" rel="noopener noreferrer"><defs><linearGradient id="dock2" x1="0" y1="0" x2="0" y2="1"><stop offset="0%" stop-color="#4aa8ff"/><stop offset="100%" stop-color="#1866d6"/></linearGradient></defs><rect x="568.0" y="22" width="54" height="54" rx="12.42" fill="url(#dock2)"/><rect x="568.5" y="22.5" width="53" height="53" rx="12.42" fill="none" stroke="#ffffff" stroke-opacity=".18"/><g transform="translate(595.0,49.0)"><rect x="-14" y="-10" width="28" height="20" rx="3" fill="#ffffff"/><path d="M-14 -10 L0 2 L14 -10" fill="none" stroke="#1866d6" stroke-width="2.4"/></g></a></g><circle cx="595.0" cy="97" r="2.2" fill="#1d1d1f" fill-opacity=".55"/><g class="dockicon"><a class="lnk" href="https://www.linkedin.com/in/ishraqkhann/" target="_blank" rel="noopener noreferrer"><defs><linearGradient id="dock3" x1="0" y1="0" x2="0" y2="1"><stop offset="0%" stop-color="#3b8fd4"/><stop offset="100%" stop-color="#0a66c2"/></linearGradient></defs><rect x="636.0" y="22" width="54" height="54" rx="12.42" fill="url(#dock3)"/><rect x="636.5" y="22.5" width="53" height="53" rx="12.42" fill="none" stroke="#ffffff" stroke-opacity=".18"/><g transform="translate(663.0,49.0)"><text x="0" y="9" text-anchor="middle" font-size="24" fill="#ffffff" font-family="-apple-system,BlinkMacSystemFont,'SF Pro Text','Segoe UI',Roboto,'Helvetica Neue',Arial,sans-serif" font-weight="700">in</text></g></a></g><circle cx="663.0" cy="97" r="2.2" fill="#1d1d1f" fill-opacity=".55"/><g class="dockicon"><a class="lnk" href="https://x.com/ishraqkhann" target="_blank" rel="noopener noreferrer"><defs><linearGradient id="dock4" x1="0" y1="0" x2="0" y2="1"><stop offset="0%" stop-color="#3a3a3c"/><stop offset="100%" stop-color="#0a0a0a"/></linearGradient></defs><rect x="704.0" y="22" width="54" height="54" rx="12.42" fill="url(#dock4)"/><rect x="704.5" y="22.5" width="53" height="53" rx="12.42" fill="none" stroke="#ffffff" stroke-opacity=".18"/><g transform="translate(731.0,49.0)"><text x="0" y="9" text-anchor="middle" font-size="26" fill="#ffffff" font-family="-apple-system,BlinkMacSystemFont,'SF Pro Text','Segoe UI',Roboto,'Helvetica Neue',Arial,sans-serif" font-weight="700">X</text></g></a></g><circle cx="731.0" cy="97" r="2.2" fill="#1d1d1f" fill-opacity=".55"/>
</svg>
