<?xml version="1.0" encoding="UTF-8"?>
<svg xmlns="http://www.w3.org/2000/svg" width="1190px" height="46px"
     viewBox="0 0 1190 46" font-family="-apple-system,BlinkMacSystemFont,'SF Pro Text','Segoe UI',Roboto,'Helvetica Neue',Arial,sans-serif"
     role="img" aria-label="menu bar">
<title>menu bar</title>
<style><![CDATA[
  text { dominant-baseline: auto; }
  .lnk { cursor: pointer; }
]]></style>
<rect x="0" y="8" width="1190" height="30" rx="9" fill="#000000" fill-opacity="0.5"/><rect x="0.5" y="8.5" width="1189" height="29" rx="9" fill="none" stroke="#38383a" stroke-opacity=".5"/><g transform="translate(16,14) scale(0.7083)" fill="#f5f5f7"><path d="M12.02 3.36c.63-.78 1.06-1.85.94-2.93-.91.04-2.02.62-2.67 1.39-.58.68-1.09 1.78-.95 2.83 1.02.08 2.05-.52 2.68-1.29z M16.5 12.9c-.02-2.2 1.8-3.26 1.88-3.31-1.02-1.5-2.62-1.7-3.18-1.72-1.35-.14-2.64.8-3.32.8-.69 0-1.74-.78-2.86-.76-1.47.02-2.83.85-3.58 2.17-1.53 2.65-.39 6.57 1.1 8.72.73 1.05 1.6 2.23 2.74 2.19 1.1-.04 1.52-.71 2.85-.71s1.71.71 2.87.69c1.19-.02 1.94-1.07 2.66-2.13.84-1.22 1.19-2.4 1.21-2.46-.03-.01-2.32-.89-2.34-3.53z"/></g>
<text x="44" y="27.5" font-size="13.5px" font-family="-apple-system,BlinkMacSystemFont,'SF Pro Text','Segoe UI',Roboto,'Helvetica Neue',Arial,sans-serif" fill="#f5f5f7" font-weight="700">Ishraq Khan</text>
<text x="158" y="27.5" font-size="13px" font-family="-apple-system,BlinkMacSystemFont,'SF Pro Text','Segoe UI',Roboto,'Helvetica Neue',Arial,sans-serif" fill="#f5f5f7" font-weight="400" fill-opacity="0.85">File</text>
<text x="210.4" y="27.5" font-size="13px" font-family="-apple-system,BlinkMacSystemFont,'SF Pro Text','Segoe UI',Roboto,'Helvetica Neue',Arial,sans-serif" fill="#f5f5f7" font-weight="400" fill-opacity="0.85">Edit</text>
<text x="262.8" y="27.5" font-size="13px" font-family="-apple-system,BlinkMacSystemFont,'SF Pro Text','Segoe UI',Roboto,'Helvetica Neue',Arial,sans-serif" fill="#f5f5f7" font-weight="400" fill-opacity="0.85">View</text>
<text x="315.2" y="27.5" font-size="13px" font-family="-apple-system,BlinkMacSystemFont,'SF Pro Text','Segoe UI',Roboto,'Helvetica Neue',Arial,sans-serif" fill="#f5f5f7" font-weight="400" fill-opacity="0.85">Window</text>
<text x="382.79999999999995" y="27.5" font-size="13px" font-family="-apple-system,BlinkMacSystemFont,'SF Pro Text','Segoe UI',Roboto,'Helvetica Neue',Arial,sans-serif" fill="#f5f5f7" font-weight="400" fill-opacity="0.85">Help</text>
<text x="1172" y="27.5" font-size="13px" font-family="-apple-system,BlinkMacSystemFont,'SF Pro Text','Segoe UI',Roboto,'Helvetica Neue',Arial,sans-serif" fill="#f5f5f7" font-weight="400" text-anchor="end" fill-opacity="0.9">2026-07-29  22:47</text>
<rect x="1005.0" y="17.0" width="24" height="12" rx="3.5" fill="none" stroke="#f5f5f7"/>
<rect x="1006.5" y="18.5" width="18" height="9" rx="2" fill="#f5f5f7"/>
<rect x="1030.0" y="20.5" width="2" height="5" rx="1" fill="#f5f5f7"/>
<g transform="translate(985.0,27.0)" fill="none" stroke="#f5f5f7" stroke-width="1.6" stroke-linecap="round"><path d="M-8 -7 A 11 11 0 0 1 8 -7"/><path d="M-4.5 -3.5 A 6.5 6.5 0 0 1 4.5 -3.5"/><circle cx="0" cy="0.5" r="1.4" fill="#f5f5f7" stroke="none"/></g>
</svg>
